<svg width="28" height="28" viewBox="0 0 28 28" fill="none" xmlns="http://www.w3.org/2000/svg">
<circle cx="14" cy="14" r="11.2" fill="#DBDCFF"/>
<path d="M11.9896 16.0003L17.9137 10.0762C18.0978 9.89209 18.332 9.80005 18.6165 9.80005C18.901 9.80005 19.1353 9.89209 19.3194 10.0762C19.5035 10.2603 19.5955 10.4945 19.5955 10.779C19.5955 11.0635 19.5035 11.2978 19.3194 11.4819L12.6924 18.1088C12.4916 18.3096 12.2573 18.41 11.9896 18.41C11.7218 18.41 11.4876 18.3096 11.2867 18.1088L8.67612 15.4982C8.49204 15.3141 8.4 15.0798 8.4 14.7954C8.4 14.5109 8.49204 14.2766 8.67612 14.0925C8.86021 13.9084 9.09449 13.8164 9.37898 13.8164C9.66347 13.8164 9.89776 13.9084 10.0818 14.0925L11.9896 16.0003Z" fill="#7E52FF"/>
</svg>
