<svg width="110" height="22" viewBox="0 0 110 22" fill="none" xmlns="http://www.w3.org/2000/svg">
<path d="M7 21.85C5.712 21.85 4.536 21.5187 3.472 20.856C2.41733 20.1933 1.57267 19.3067 0.938 18.196C0.312667 17.076 0 15.8393 0 14.486C0 13.4593 0.182 12.5027 0.546 11.616C0.91 10.72 1.40933 9.93599 2.044 9.26399C2.688 8.58266 3.43467 8.05066 4.284 7.66799C5.13333 7.28533 6.03867 7.09399 7 7.09399C8.036 7.09399 8.988 7.29933 9.856 7.70999C10.7333 8.12066 11.4847 8.69466 12.11 9.43199C12.7447 10.1693 13.2207 11.0327 13.538 12.022C13.8647 13.0113 14 14.08 13.944 15.228H2.072C2.184 16.1147 2.464 16.908 2.912 17.608C3.36933 18.308 3.948 18.8633 4.648 19.274C5.35733 19.6753 6.14133 19.8807 7 19.89C7.93333 19.89 8.77333 19.6473 9.52 19.162C10.276 18.6767 10.8827 18.0093 11.34 17.16L13.328 17.622C12.768 18.8633 11.9233 19.8807 10.794 20.674C9.66467 21.458 8.4 21.85 7 21.85ZM2.016 13.646H11.97C11.9047 12.778 11.6387 11.9847 11.172 11.266C10.7147 10.538 10.122 9.95933 9.394 9.52999C8.666 9.09133 7.868 8.87199 7 8.87199C6.132 8.87199 5.33867 9.08666 4.62 9.51599C3.90133 9.93599 3.31333 10.51 2.856 11.238C2.39867 11.9567 2.11867 12.7593 2.016 13.646Z" fill="black"/>
<path d="M26.2032 17.972L27.9532 18.924C27.3185 19.8107 26.5112 20.52 25.5312 21.052C24.5605 21.584 23.5059 21.85 22.3672 21.85C21.0792 21.85 19.9032 21.5187 18.8392 20.856C17.7845 20.1933 16.9399 19.3067 16.3052 18.196C15.6799 17.076 15.3672 15.8393 15.3672 14.486C15.3672 13.4593 15.5492 12.5027 15.9132 11.616C16.2772 10.72 16.7765 9.93599 17.4112 9.26399C18.0552 8.58266 18.8019 8.05066 19.6512 7.66799C20.5005 7.28533 21.4059 7.09399 22.3672 7.09399C23.5059 7.09399 24.5605 7.35999 25.5312 7.89199C26.5112 8.42399 27.3185 9.13799 27.9532 10.034L26.2032 10.972C25.7179 10.356 25.1345 9.88466 24.4532 9.55799C23.7719 9.22199 23.0765 9.05399 22.3672 9.05399C21.4245 9.05399 20.5705 9.30599 19.8052 9.80999C19.0399 10.3047 18.4332 10.9627 17.9852 11.784C17.5465 12.6053 17.3272 13.506 17.3272 14.486C17.3272 15.466 17.5512 16.3667 17.9992 17.188C18.4565 18.0093 19.0679 18.6673 19.8332 19.162C20.5985 19.6473 21.4432 19.89 22.3672 19.89C23.1325 19.89 23.8512 19.7127 24.5232 19.358C25.1952 19.0033 25.7552 18.5413 26.2032 17.972Z" fill="black"/>
<path d="M36.4492 21.85C35.1612 21.85 33.9852 21.5187 32.9212 20.856C31.8666 20.1933 31.0219 19.3067 30.3872 18.196C29.7619 17.076 29.4492 15.8393 29.4492 14.486C29.4492 13.4593 29.6312 12.5027 29.9952 11.616C30.3592 10.72 30.8586 9.93599 31.4932 9.26399C32.1372 8.58266 32.8839 8.05066 33.7332 7.66799C34.5826 7.28533 35.4879 7.09399 36.4492 7.09399C37.7372 7.09399 38.9086 7.42533 39.9632 8.08799C41.0272 8.75066 41.8719 9.64199 42.4972 10.762C43.1319 11.882 43.4492 13.1233 43.4492 14.486C43.4492 15.5033 43.2672 16.4553 42.9032 17.342C42.5392 18.2287 42.0352 19.0127 41.3912 19.694C40.7566 20.366 40.0146 20.8933 39.1652 21.276C38.3252 21.6587 37.4199 21.85 36.4492 21.85ZM36.4492 19.89C37.4012 19.89 38.2552 19.6427 39.0112 19.148C39.7766 18.644 40.3786 17.9813 40.8172 17.16C41.2652 16.3387 41.4892 15.4473 41.4892 14.486C41.4892 13.506 41.2652 12.6053 40.8172 11.784C40.3692 10.9533 39.7626 10.2907 38.9972 9.79599C38.2412 9.30133 37.3919 9.05399 36.4492 9.05399C35.4972 9.05399 34.6386 9.30599 33.8732 9.80999C33.1172 10.3047 32.5152 10.9627 32.0672 11.784C31.6286 12.6053 31.4092 13.506 31.4092 14.486C31.4092 15.494 31.6379 16.4087 32.0952 17.23C32.5526 18.042 33.1639 18.6907 33.9292 19.176C34.6946 19.652 35.5346 19.89 36.4492 19.89Z" fill="black"/>
<path d="M45.1237 16.124V7.48599H47.0838V15.732C47.0838 16.4973 47.2704 17.1927 47.6437 17.818C48.0171 18.4433 48.5164 18.9427 49.1418 19.316C49.7764 19.6893 50.4717 19.876 51.2277 19.876C51.9931 19.876 52.6838 19.6893 53.2998 19.316C53.9251 18.9427 54.4244 18.4433 54.7977 17.818C55.1711 17.1927 55.3577 16.4973 55.3577 15.732V7.48599H57.3177L57.3317 21.486H55.3717L55.3577 19.526C54.8631 20.2353 54.2191 20.8 53.4258 21.22C52.6418 21.64 51.7831 21.85 50.8498 21.85C49.7951 21.85 48.8338 21.5933 47.9658 21.08C47.0978 20.5667 46.4071 19.876 45.8937 19.008C45.3804 18.14 45.1237 17.1787 45.1237 16.124Z" fill="black"/>
<path d="M60.1213 21.486V7.48599H62.0812V9.41799C62.5759 8.70866 63.2199 8.14399 64.0133 7.72399C64.8066 7.30399 65.6699 7.09399 66.6032 7.09399C67.1446 7.09399 67.6672 7.16399 68.1712 7.30399L67.3733 9.24999C66.9813 9.12866 66.5986 9.06799 66.2253 9.06799C65.4692 9.06799 64.7739 9.25466 64.1393 9.62799C63.5139 10.0013 63.0146 10.5007 62.6413 11.126C62.2679 11.7513 62.0812 12.4467 62.0812 13.212V21.486H60.1213Z" fill="black"/>
<path d="M74.2637 21.752C73.4983 21.7333 72.7517 21.5933 72.0237 21.332C71.2957 21.0707 70.661 20.716 70.1197 20.268C69.5783 19.82 69.191 19.3113 68.9577 18.742L70.6517 18.014C70.801 18.378 71.0763 18.714 71.4777 19.022C71.8883 19.3207 72.355 19.5633 72.8777 19.75C73.4003 19.9273 73.9183 20.016 74.4317 20.016C75.001 20.016 75.533 19.9227 76.0277 19.736C76.5223 19.5493 76.9237 19.2833 77.2317 18.938C77.549 18.5833 77.7077 18.168 77.7077 17.692C77.7077 17.1787 77.5397 16.7773 77.2037 16.488C76.8677 16.1893 76.443 15.956 75.9297 15.788C75.4163 15.6107 74.889 15.4427 74.3477 15.284C73.3583 15.0133 72.4857 14.7147 71.7297 14.388C70.9737 14.0613 70.381 13.646 69.9517 13.142C69.5317 12.6287 69.3217 11.9707 69.3217 11.168C69.3217 10.3187 69.5597 9.58599 70.0357 8.96999C70.521 8.34466 71.151 7.86399 71.9257 7.52799C72.7097 7.18266 73.545 7.00999 74.4317 7.00999C75.5703 7.00999 76.6063 7.25733 77.5397 7.75199C78.4823 8.24666 79.1637 8.90466 79.5837 9.72599L78.0017 10.664C77.8337 10.2813 77.5677 9.94999 77.2037 9.66999C76.8397 9.38999 76.4243 9.17066 75.9577 9.01199C75.5003 8.85333 75.0337 8.76933 74.5577 8.75999C73.9603 8.75066 73.405 8.83933 72.8917 9.02599C72.3783 9.20333 71.963 9.46933 71.6457 9.82399C71.3377 10.1787 71.1837 10.6127 71.1837 11.126C71.1837 11.6393 71.3377 12.0313 71.6457 12.302C71.9537 12.5633 72.369 12.778 72.8917 12.946C73.4237 13.1047 74.021 13.2913 74.6837 13.506C75.533 13.7767 76.331 14.0847 77.0777 14.43C77.8243 14.7753 78.4263 15.2047 78.8837 15.718C79.341 16.2313 79.565 16.88 79.5557 17.664C79.5557 18.504 79.3037 19.2367 78.7997 19.862C78.2957 20.4873 77.6423 20.968 76.8397 21.304C76.037 21.6307 75.1783 21.78 74.2637 21.752Z" fill="black"/>
<path d="M88.0195 21.85C86.7315 21.85 85.5555 21.5187 84.4915 20.856C83.4369 20.1933 82.5922 19.3067 81.9575 18.196C81.3322 17.076 81.0195 15.8393 81.0195 14.486C81.0195 13.4593 81.2015 12.5027 81.5655 11.616C81.9295 10.72 82.4289 9.93599 83.0635 9.26399C83.7075 8.58266 84.4542 8.05066 85.3035 7.66799C86.1529 7.28533 87.0582 7.09399 88.0195 7.09399C89.0555 7.09399 90.0075 7.29933 90.8755 7.70999C91.7529 8.12066 92.5042 8.69466 93.1295 9.43199C93.7642 10.1693 94.2402 11.0327 94.5575 12.022C94.8842 13.0113 95.0195 14.08 94.9635 15.228H83.0915C83.2035 16.1147 83.4835 16.908 83.9315 17.608C84.3889 18.308 84.9675 18.8633 85.6675 19.274C86.3769 19.6753 87.1609 19.8807 88.0195 19.89C88.9529 19.89 89.7929 19.6473 90.5395 19.162C91.2955 18.6767 91.9022 18.0093 92.3595 17.16L94.3475 17.622C93.7875 18.8633 92.9429 19.8807 91.8135 20.674C90.6842 21.458 89.4195 21.85 88.0195 21.85ZM83.0355 13.646H92.9895C92.9242 12.778 92.6582 11.9847 92.1915 11.266C91.7342 10.538 91.1415 9.95933 90.4135 9.52999C89.6855 9.09133 88.8875 8.87199 88.0195 8.87199C87.1515 8.87199 86.3582 9.08666 85.6395 9.51599C84.9209 9.93599 84.3329 10.51 83.8755 11.238C83.4182 11.9567 83.1382 12.7593 83.0355 13.646Z" fill="black"/>
<path d="M97.2541 21.486V0.485993H99.2141V21.486H97.2541Z" fill="black"/>
<path d="M105.484 3.83199V7.48599H109.684V9.44599H105.484V21.486H103.524V9.44599H101.606V7.48599H103.524V3.83199C103.524 3.15066 103.687 2.53466 104.014 1.98399C104.35 1.42399 104.798 0.98066 105.358 0.653994C105.918 0.317994 106.539 0.149994 107.22 0.149994C107.715 0.149994 108.191 0.247994 108.648 0.443994C109.115 0.639993 109.53 0.929326 109.894 1.31199L108.494 2.69799C108.345 2.51133 108.153 2.36666 107.92 2.26399C107.696 2.16133 107.463 2.10999 107.22 2.10999C106.744 2.10999 106.333 2.27799 105.988 2.61399C105.652 2.94999 105.484 3.35599 105.484 3.83199Z" fill="black"/>
</svg>
